<svg xmlns="http://www.w3.org/2000/svg" width="20.197" height="13.381" viewBox="0 0 20.197 13.381"><defs><style>.a{fill:#e20a1a;}</style></defs><path class="a" d="M21.635,61.613v0s0-.006,0-.01,0-.019,0-.029,0-.011,0-.017,0-.015,0-.022,0-.012-.005-.018,0-.013-.006-.02l-.007-.018-.008-.019-.009-.017-.011-.019-.011-.016-.013-.018-.014-.016-.013-.015-.02-.019-.01-.01h0l-.034-.027-.013-.009-.023-.015-.02-.01-.019-.01-.02-.008-.021-.009-.018-.006-.025-.008-.017,0-.027-.006-.019,0-.035,0-.036,0H1.9l-.036,0H1.851l-.042.006-.024.005-.02,0-.023.007-.02.006L1.7,61.25l-.022.009-.017.009-.022.012-.032.021-.012.008-.027.021h0l-.01.01-.019.019-.013.015-.014.017-.012.017-.011.016-.01.018-.009.018-.008.018-.007.019-.006.019c0,.006,0,.013-.005.019s0,.014,0,.02,0,.012,0,.018,0,.017,0,.025,0,.008,0,.013v12.58a.436.436,0,0,0,.464.4h19.27a.436.436,0,0,0,.464-.4V61.614Zm-19.27.955,6.224,5.3-6.224,5.3Zm9.19,6.7L3.033,62.012H20.044ZM9.25,68.429l1.981,1.686a.517.517,0,0,0,.652,0l1.956-1.672,6.285,5.348H2.95Zm5.248-.55,6.21-5.308V73.163Z" transform="translate(-1.438 -61.211)"/></svg>