<svg xmlns="http://www.w3.org/2000/svg" width="13.79" height="13.852" viewBox="0 0 13.79 13.852"><defs><style>.a{fill:#e20a1a;}</style></defs><path class="a" d="M127.608,237.058a1.446,1.446,0,0,0-1.049-.481,1.5,1.5,0,0,0-1.061.478l-.981.977c-.081-.044-.161-.084-.239-.124-.112-.056-.217-.109-.307-.165a10.659,10.659,0,0,1-2.554-2.327,6.29,6.29,0,0,1-.838-1.322c.254-.233.49-.475.72-.708.087-.087.174-.177.261-.264a1.424,1.424,0,0,0,0-2.147l-.847-.847c-.1-.1-.2-.2-.288-.295-.186-.192-.382-.391-.583-.577a1.469,1.469,0,0,0-1.04-.456,1.52,1.52,0,0,0-1.055.456l-.006.006-1.055,1.064a2.27,2.27,0,0,0-.673,1.443,5.44,5.44,0,0,0,.4,2.3,13.36,13.36,0,0,0,2.374,3.96,14.6,14.6,0,0,0,4.862,3.807,7.576,7.576,0,0,0,2.731.807c.065,0,.134.006.2.006a2.338,2.338,0,0,0,1.79-.77c0-.006.009-.009.012-.015a7.029,7.029,0,0,1,.543-.562c.133-.127.27-.261.4-.4a1.547,1.547,0,0,0,.468-1.074,1.492,1.492,0,0,0-.478-1.064Zm1.111,3.267s0,0,0,0c-.121.13-.245.248-.379.379a8.16,8.16,0,0,0-.6.621,1.5,1.5,0,0,1-1.167.493c-.047,0-.1,0-.143,0a6.732,6.732,0,0,1-2.42-.726,13.786,13.786,0,0,1-4.58-3.587,12.6,12.6,0,0,1-2.234-3.721,4.429,4.429,0,0,1-.348-1.942,1.424,1.424,0,0,1,.428-.922l1.058-1.058a.705.705,0,0,1,.472-.22.664.664,0,0,1,.453.217l.009.009c.189.177.369.36.559.555.1.1.2.2.295.3l.847.847a.592.592,0,0,1,0,.962c-.09.09-.177.18-.267.267-.261.267-.509.515-.779.757-.006.006-.012.009-.016.015a.633.633,0,0,0-.161.7l.009.028a6.8,6.8,0,0,0,1,1.635l0,0a11.389,11.389,0,0,0,2.755,2.507,4.2,4.2,0,0,0,.382.208c.112.056.217.109.307.165.012.006.025.016.037.022a.673.673,0,0,0,.307.078.663.663,0,0,0,.472-.214l1.061-1.061a.7.7,0,0,1,.469-.233.631.631,0,0,1,.447.227l1.716,1.716a.613.613,0,0,1,0,.971Zm0,0" transform="translate(-115.999 -228.801)"/></svg>