<svg xmlns="http://www.w3.org/2000/svg" xmlns:xlink="http://www.w3.org/1999/xlink" width="19" height="17" viewBox="0 0 19 17"><defs><style>.a{fill:#333;}.b{clip-path:url(#a);}</style><clipPath id="a"><rect class="a" width="19" height="17"/></clipPath></defs><g class="b" transform="translate(0 0)"><path class="a" d="M509.774,219.53l-9-6.586a.494.494,0,0,0-.583,0l-9,6.586a.493.493,0,1,0,.583.8l8.7-6.373,8.7,6.373a.493.493,0,0,0,.583-.8Zm0,0" transform="translate(-490.999 -212.807)"/></g><path class="a" d="M547.639,366.406a.493.493,0,0,0-.493.493v7.848H543.2v-4.284a2.466,2.466,0,1,0-4.931,0v4.284h-3.944V366.9a.493.493,0,1,0-.986,0v8.341a.493.493,0,0,0,.493.493h4.931a.493.493,0,0,0,.491-.455.362.362,0,0,0,0-.038v-4.777a1.479,1.479,0,1,1,2.959,0v4.777a.368.368,0,0,0,0,.038.493.493,0,0,0,.491.455h4.93a.493.493,0,0,0,.493-.493V366.9a.493.493,0,0,0-.493-.493Zm0,0" transform="translate(-531.248 -358.776)"/></svg>